<svg width="1382" height="169" viewBox="0 0 1382 169" fill="none" xmlns="http://www.w3.org/2000/svg">
<g filter="url(#filter0_d_378_642)">
<mask id="path-1-outside-1_378_642" maskUnits="userSpaceOnUse" x="4" y="0" width="1374" height="161" fill="black">
<rect fill="white" x="4" width="1374" height="161"/>
<path d="M5 80.5C5 36.5934 40.5934 1 84.5 1H1297.5C1341.41 1 1377 36.5934 1377 80.5C1377 124.407 1341.41 160 1297.5 160H84.5C40.5934 160 5 124.407 5 80.5Z"/>
<path d="M293.625 59.7969L308.762 93H298.117L296.506 88.6055H286.154L284.543 93H273.898L289.035 59.7969H293.625ZM291.33 74.543L288.84 81.2812H293.82L291.33 74.543Z"/>
<path d="M335.422 60.2852V68.3418H325.803V92.8535H316.672V68.3418H307.053V60.2852H335.422Z"/>
<path d="M363.156 73.0293V79.8652H350.168V85.1875H364.865V93H341.037V60.2852H364.865V67.8535H350.168V73.0293H363.156Z"/>
<path d="M382.297 60.2852V84.9434H396.994V93H373.166V60.2852H382.297Z"/>
<path d="M423.996 84.9434V93H403.83V84.9434H409.348V68.3418H403.83V60.2852H423.996V68.3418H418.479V84.9434H423.996Z"/>
<path d="M454.416 73.0293V79.8652H441.428V85.1875H456.125V93H432.297V60.2852H456.125V67.8535H441.428V73.0293H454.416Z"/>
<path d="M478.439 60.2852C480.1 60.2852 481.711 60.513 483.273 60.9688C484.868 61.4245 486.301 62.1243 487.57 63.0684C488.84 64.0124 489.849 65.2005 490.598 66.6328C491.379 68.0651 491.77 69.7415 491.77 71.6621C491.77 74.1035 491.07 76.1217 489.67 77.7168C488.303 79.3118 486.545 80.4023 484.396 80.9883L493.43 93H482.297L473.557 80.0117V93H464.426V60.2852H478.439ZM473.557 68.8301V74.9336C474.11 75.1289 474.696 75.2917 475.314 75.4219C475.965 75.5521 476.649 75.6172 477.365 75.6172C478.798 75.6172 479.986 75.3405 480.93 74.7871C481.906 74.2012 482.395 73.3223 482.395 72.1504C482.395 70.8158 481.906 69.9368 480.93 69.5137C479.986 69.0579 478.798 68.8301 477.365 68.8301H473.557Z"/>
<path d="M535.08 84.9434V93H512.473V84.9434H519.357V72.0039C518.413 72.7852 517.323 73.4362 516.086 73.957C514.882 74.4779 513.758 74.8848 512.717 75.1777V66.1445C514.117 65.6562 515.663 64.9238 517.355 63.9473C519.048 62.9707 520.464 61.75 521.604 60.2852H528.488V84.9434H535.08Z"/>
<path d="M570.383 76.4961V83.8203H555.686V76.4961H570.383Z"/>
<path d="M601.486 60.2852V84.9434H616.184V93H592.355V60.2852H601.486Z"/>
<path d="M624.973 59.4062L631.906 60.7734L626.535 72.3457L620.578 71.5645L624.973 59.4062Z"/>
<path d="M657.443 84.9434V93H637.277V84.9434H642.795V68.3418H637.277V60.2852H657.443V68.3418H651.926V84.9434H657.443Z"/>
<path d="M681.564 59.7969L696.701 93H686.057L684.445 88.6055H674.094L672.482 93H661.838L676.975 59.7969H681.564ZM679.27 74.543L676.779 81.2812H681.76L679.27 74.543Z"/>
<path d="M732.053 59.7969L747.189 93H736.545L734.934 88.6055H724.582L722.971 93H712.326L727.463 59.7969H732.053ZM729.758 74.543L727.268 81.2812H732.248L729.758 74.543Z"/>
<path d="M779.221 60.1875V80.0605C779.221 82.8926 778.553 85.334 777.219 87.3848C775.884 89.4355 774.094 91.0143 771.848 92.1211C769.634 93.1953 767.16 93.7324 764.426 93.7324C761.724 93.7324 759.25 93.1953 757.004 92.1211C754.758 91.0143 752.967 89.4355 751.633 87.3848C750.298 85.334 749.631 82.8926 749.631 80.0605V60.1875H758.762V79.4258C758.762 81.1185 759.217 82.5182 760.129 83.625C761.04 84.6992 762.473 85.2201 764.426 85.1875C766.379 85.1549 767.811 84.6178 768.723 83.5762C769.634 82.502 770.09 81.1185 770.09 79.4258V60.1875H779.221Z"/>
<path d="M816.721 59.5527C818.934 59.5527 821.05 59.9434 823.068 60.7246C825.119 61.4733 826.942 62.5801 828.537 64.0449C830.132 65.5098 831.385 67.3001 832.297 69.416C833.241 71.5319 833.713 73.9408 833.713 76.6426C833.713 80.4186 832.834 83.625 831.076 86.2617C829.318 88.8659 827.089 90.8027 824.387 92.0723C825.786 92.8535 827.365 93.3255 829.123 93.4883C830.913 93.651 832.753 93.7324 834.641 93.7324V101.35C832.688 101.35 830.604 101.073 828.391 100.52C826.177 99.9987 824.045 99.1686 821.994 98.0293C819.976 96.89 818.218 95.4577 816.721 93.7324C814.507 93.7324 812.375 93.3581 810.324 92.6094C808.306 91.8281 806.499 90.7051 804.904 89.2402C803.309 87.7754 802.04 85.985 801.096 83.8691C800.184 81.7533 799.729 79.3444 799.729 76.6426C799.729 73.9408 800.184 71.5319 801.096 69.416C802.04 67.3001 803.309 65.5098 804.904 64.0449C806.499 62.5801 808.306 61.4733 810.324 60.7246C812.375 59.9434 814.507 59.5527 816.721 59.5527ZM816.721 68.0977C815.256 68.0977 813.954 68.472 812.814 69.2207C811.675 69.9694 810.764 70.9948 810.08 72.2969C809.429 73.5664 809.104 75.015 809.104 76.6426C809.104 78.2702 809.429 79.735 810.08 81.0371C810.764 82.3066 811.675 83.3158 812.814 84.0645C813.954 84.8132 815.256 85.1875 816.721 85.1875C818.186 85.1875 819.488 84.8132 820.627 84.0645C821.799 83.3158 822.71 82.3066 823.361 81.0371C824.012 79.735 824.338 78.2702 824.338 76.6426C824.338 75.015 824.012 73.5664 823.361 72.2969C822.71 70.9948 821.799 69.9694 820.627 69.2207C819.488 68.472 818.186 68.0977 816.721 68.0977Z"/>
<path d="M871.066 60.1875V80.0605C871.066 82.8926 870.399 85.334 869.064 87.3848C867.73 89.4355 865.939 91.0143 863.693 92.1211C861.48 93.1953 859.006 93.7324 856.271 93.7324C853.57 93.7324 851.096 93.1953 848.85 92.1211C846.604 91.0143 844.813 89.4355 843.479 87.3848C842.144 85.334 841.477 82.8926 841.477 80.0605V60.1875H850.607V79.4258C850.607 81.1185 851.063 82.5182 851.975 83.625C852.886 84.6992 854.318 85.2201 856.271 85.1875C858.225 85.1549 859.657 84.6178 860.568 83.5762C861.48 82.502 861.936 81.1185 861.936 79.4258V60.1875H871.066Z"/>
<path d="M893.918 59.5527C896.132 59.5527 898.247 59.9434 900.266 60.7246C902.316 61.4733 904.139 62.5801 905.734 64.0449C907.329 65.5098 908.583 67.3001 909.494 69.416C910.438 71.5319 910.91 73.9408 910.91 76.6426C910.91 79.3444 910.438 81.7533 909.494 83.8691C908.583 85.985 907.329 87.7754 905.734 89.2402C904.139 90.7051 902.316 91.8281 900.266 92.6094C898.247 93.3581 896.132 93.7324 893.918 93.7324C891.704 93.7324 889.572 93.3581 887.521 92.6094C885.503 91.8281 883.697 90.7051 882.102 89.2402C880.507 87.7754 879.237 85.985 878.293 83.8691C877.382 81.7533 876.926 79.3444 876.926 76.6426C876.926 73.9408 877.382 71.5319 878.293 69.416C879.237 67.3001 880.507 65.5098 882.102 64.0449C883.697 62.5801 885.503 61.4733 887.521 60.7246C889.572 59.9434 891.704 59.5527 893.918 59.5527ZM893.918 68.0977C892.453 68.0977 891.151 68.472 890.012 69.2207C888.872 69.9694 887.961 70.9948 887.277 72.2969C886.626 73.5664 886.301 75.015 886.301 76.6426C886.301 78.2702 886.626 79.735 887.277 81.0371C887.961 82.3066 888.872 83.3158 890.012 84.0645C891.151 84.8132 892.453 85.1875 893.918 85.1875C895.383 85.1875 896.685 84.8132 897.824 84.0645C898.996 83.3158 899.908 82.3066 900.559 81.0371C901.21 79.735 901.535 78.2702 901.535 76.6426C901.535 75.015 901.21 73.5664 900.559 72.2969C899.908 70.9948 898.996 69.9694 897.824 69.2207C896.685 68.472 895.383 68.0977 893.918 68.0977Z"/>
<path d="M942.453 60.2852V68.3418H932.834V92.8535H923.703V68.3418H914.084V60.2852H942.453Z"/>
<path d="M967.746 84.9434V93H947.58V84.9434H953.098V68.3418H947.58V60.2852H967.746V68.3418H962.229V84.9434H967.746Z"/>
<path d="M989.377 59.5039C992.632 59.5039 995.578 60.1549 998.215 61.457C1000.85 62.7591 1002.95 64.6471 1004.51 67.1211C1006.08 69.5951 1006.86 72.5898 1006.86 76.1055C1006.86 78.5143 1006.45 80.793 1005.64 82.9414C1004.86 85.0573 1003.73 86.929 1002.27 88.5566C1000.8 90.1842 999.045 91.4538 996.994 92.3652C994.943 93.2767 992.648 93.7324 990.109 93.7324C988.612 93.7324 987.017 93.6673 985.324 93.5371C983.664 93.4395 982.036 93.2767 980.441 93.0488C978.846 92.8535 977.382 92.6257 976.047 92.3652V60.8711C978.13 60.513 980.327 60.2038 982.639 59.9434C984.982 59.6504 987.229 59.5039 989.377 59.5039ZM989.67 68.0488C988.921 68.0488 988.14 68.1139 987.326 68.2441C986.545 68.3418 985.829 68.472 985.178 68.6348V84.6016C985.926 84.8294 986.691 84.9922 987.473 85.0898C988.254 85.1549 988.986 85.1875 989.67 85.1875C991.33 85.1875 992.73 84.8132 993.869 84.0645C995.041 83.2832 995.936 82.2415 996.555 80.9395C997.173 79.6374 997.482 78.1888 997.482 76.5938C997.482 74.0547 996.799 72.0039 995.432 70.4414C994.097 68.8464 992.176 68.0488 989.67 68.0488Z"/>
<path d="M1032.88 84.9434V93H1012.72V84.9434H1018.23V68.3418H1012.72V60.2852H1032.88V68.3418H1027.37V84.9434H1032.88Z"/>
<path d="M1063.3 73.0293V79.8652H1050.31V85.1875H1065.01V93H1041.18V60.2852H1065.01V67.8535H1050.31V73.0293H1063.3Z"/>
<path d="M1103.2 60.2852V93.4883H1099.97L1082.44 76.9355V93H1073.31V59.7969H1076.54L1094.06 76.6426V60.2852H1103.2Z"/>
</mask>
<path d="M5 80.5C5 36.5934 40.5934 1 84.5 1H1297.5C1341.41 1 1377 36.5934 1377 80.5C1377 124.407 1341.41 160 1297.5 160H84.5C40.5934 160 5 124.407 5 80.5Z" fill="url(#paint0_linear_378_642)"/>
<path d="M293.625 59.7969L308.762 93H298.117L296.506 88.6055H286.154L284.543 93H273.898L289.035 59.7969H293.625ZM291.33 74.543L288.84 81.2812H293.82L291.33 74.543Z" fill="white"/>
<path d="M335.422 60.2852V68.3418H325.803V92.8535H316.672V68.3418H307.053V60.2852H335.422Z" fill="white"/>
<path d="M363.156 73.0293V79.8652H350.168V85.1875H364.865V93H341.037V60.2852H364.865V67.8535H350.168V73.0293H363.156Z" fill="white"/>
<path d="M382.297 60.2852V84.9434H396.994V93H373.166V60.2852H382.297Z" fill="white"/>
<path d="M423.996 84.9434V93H403.83V84.9434H409.348V68.3418H403.83V60.2852H423.996V68.3418H418.479V84.9434H423.996Z" fill="white"/>
<path d="M454.416 73.0293V79.8652H441.428V85.1875H456.125V93H432.297V60.2852H456.125V67.8535H441.428V73.0293H454.416Z" fill="white"/>
<path d="M478.439 60.2852C480.1 60.2852 481.711 60.513 483.273 60.9688C484.868 61.4245 486.301 62.1243 487.57 63.0684C488.84 64.0124 489.849 65.2005 490.598 66.6328C491.379 68.0651 491.77 69.7415 491.77 71.6621C491.77 74.1035 491.07 76.1217 489.67 77.7168C488.303 79.3118 486.545 80.4023 484.396 80.9883L493.43 93H482.297L473.557 80.0117V93H464.426V60.2852H478.439ZM473.557 68.8301V74.9336C474.11 75.1289 474.696 75.2917 475.314 75.4219C475.965 75.5521 476.649 75.6172 477.365 75.6172C478.798 75.6172 479.986 75.3405 480.93 74.7871C481.906 74.2012 482.395 73.3223 482.395 72.1504C482.395 70.8158 481.906 69.9368 480.93 69.5137C479.986 69.0579 478.798 68.8301 477.365 68.8301H473.557Z" fill="white"/>
<path d="M535.08 84.9434V93H512.473V84.9434H519.357V72.0039C518.413 72.7852 517.323 73.4362 516.086 73.957C514.882 74.4779 513.758 74.8848 512.717 75.1777V66.1445C514.117 65.6562 515.663 64.9238 517.355 63.9473C519.048 62.9707 520.464 61.75 521.604 60.2852H528.488V84.9434H535.08Z" fill="white"/>
<path d="M570.383 76.4961V83.8203H555.686V76.4961H570.383Z" fill="white"/>
<path d="M601.486 60.2852V84.9434H616.184V93H592.355V60.2852H601.486Z" fill="white"/>
<path d="M624.973 59.4062L631.906 60.7734L626.535 72.3457L620.578 71.5645L624.973 59.4062Z" fill="white"/>
<path d="M657.443 84.9434V93H637.277V84.9434H642.795V68.3418H637.277V60.2852H657.443V68.3418H651.926V84.9434H657.443Z" fill="white"/>
<path d="M681.564 59.7969L696.701 93H686.057L684.445 88.6055H674.094L672.482 93H661.838L676.975 59.7969H681.564ZM679.27 74.543L676.779 81.2812H681.76L679.27 74.543Z" fill="white"/>
<path d="M732.053 59.7969L747.189 93H736.545L734.934 88.6055H724.582L722.971 93H712.326L727.463 59.7969H732.053ZM729.758 74.543L727.268 81.2812H732.248L729.758 74.543Z" fill="white"/>
<path d="M779.221 60.1875V80.0605C779.221 82.8926 778.553 85.334 777.219 87.3848C775.884 89.4355 774.094 91.0143 771.848 92.1211C769.634 93.1953 767.16 93.7324 764.426 93.7324C761.724 93.7324 759.25 93.1953 757.004 92.1211C754.758 91.0143 752.967 89.4355 751.633 87.3848C750.298 85.334 749.631 82.8926 749.631 80.0605V60.1875H758.762V79.4258C758.762 81.1185 759.217 82.5182 760.129 83.625C761.04 84.6992 762.473 85.2201 764.426 85.1875C766.379 85.1549 767.811 84.6178 768.723 83.5762C769.634 82.502 770.09 81.1185 770.09 79.4258V60.1875H779.221Z" fill="white"/>
<path d="M816.721 59.5527C818.934 59.5527 821.05 59.9434 823.068 60.7246C825.119 61.4733 826.942 62.5801 828.537 64.0449C830.132 65.5098 831.385 67.3001 832.297 69.416C833.241 71.5319 833.713 73.9408 833.713 76.6426C833.713 80.4186 832.834 83.625 831.076 86.2617C829.318 88.8659 827.089 90.8027 824.387 92.0723C825.786 92.8535 827.365 93.3255 829.123 93.4883C830.913 93.651 832.753 93.7324 834.641 93.7324V101.35C832.688 101.35 830.604 101.073 828.391 100.52C826.177 99.9987 824.045 99.1686 821.994 98.0293C819.976 96.89 818.218 95.4577 816.721 93.7324C814.507 93.7324 812.375 93.3581 810.324 92.6094C808.306 91.8281 806.499 90.7051 804.904 89.2402C803.309 87.7754 802.04 85.985 801.096 83.8691C800.184 81.7533 799.729 79.3444 799.729 76.6426C799.729 73.9408 800.184 71.5319 801.096 69.416C802.04 67.3001 803.309 65.5098 804.904 64.0449C806.499 62.5801 808.306 61.4733 810.324 60.7246C812.375 59.9434 814.507 59.5527 816.721 59.5527ZM816.721 68.0977C815.256 68.0977 813.954 68.472 812.814 69.2207C811.675 69.9694 810.764 70.9948 810.08 72.2969C809.429 73.5664 809.104 75.015 809.104 76.6426C809.104 78.2702 809.429 79.735 810.08 81.0371C810.764 82.3066 811.675 83.3158 812.814 84.0645C813.954 84.8132 815.256 85.1875 816.721 85.1875C818.186 85.1875 819.488 84.8132 820.627 84.0645C821.799 83.3158 822.71 82.3066 823.361 81.0371C824.012 79.735 824.338 78.2702 824.338 76.6426C824.338 75.015 824.012 73.5664 823.361 72.2969C822.71 70.9948 821.799 69.9694 820.627 69.2207C819.488 68.472 818.186 68.0977 816.721 68.0977Z" fill="white"/>
<path d="M871.066 60.1875V80.0605C871.066 82.8926 870.399 85.334 869.064 87.3848C867.73 89.4355 865.939 91.0143 863.693 92.1211C861.48 93.1953 859.006 93.7324 856.271 93.7324C853.57 93.7324 851.096 93.1953 848.85 92.1211C846.604 91.0143 844.813 89.4355 843.479 87.3848C842.144 85.334 841.477 82.8926 841.477 80.0605V60.1875H850.607V79.4258C850.607 81.1185 851.063 82.5182 851.975 83.625C852.886 84.6992 854.318 85.2201 856.271 85.1875C858.225 85.1549 859.657 84.6178 860.568 83.5762C861.48 82.502 861.936 81.1185 861.936 79.4258V60.1875H871.066Z" fill="white"/>
<path d="M893.918 59.5527C896.132 59.5527 898.247 59.9434 900.266 60.7246C902.316 61.4733 904.139 62.5801 905.734 64.0449C907.329 65.5098 908.583 67.3001 909.494 69.416C910.438 71.5319 910.91 73.9408 910.91 76.6426C910.91 79.3444 910.438 81.7533 909.494 83.8691C908.583 85.985 907.329 87.7754 905.734 89.2402C904.139 90.7051 902.316 91.8281 900.266 92.6094C898.247 93.3581 896.132 93.7324 893.918 93.7324C891.704 93.7324 889.572 93.3581 887.521 92.6094C885.503 91.8281 883.697 90.7051 882.102 89.2402C880.507 87.7754 879.237 85.985 878.293 83.8691C877.382 81.7533 876.926 79.3444 876.926 76.6426C876.926 73.9408 877.382 71.5319 878.293 69.416C879.237 67.3001 880.507 65.5098 882.102 64.0449C883.697 62.5801 885.503 61.4733 887.521 60.7246C889.572 59.9434 891.704 59.5527 893.918 59.5527ZM893.918 68.0977C892.453 68.0977 891.151 68.472 890.012 69.2207C888.872 69.9694 887.961 70.9948 887.277 72.2969C886.626 73.5664 886.301 75.015 886.301 76.6426C886.301 78.2702 886.626 79.735 887.277 81.0371C887.961 82.3066 888.872 83.3158 890.012 84.0645C891.151 84.8132 892.453 85.1875 893.918 85.1875C895.383 85.1875 896.685 84.8132 897.824 84.0645C898.996 83.3158 899.908 82.3066 900.559 81.0371C901.21 79.735 901.535 78.2702 901.535 76.6426C901.535 75.015 901.21 73.5664 900.559 72.2969C899.908 70.9948 898.996 69.9694 897.824 69.2207C896.685 68.472 895.383 68.0977 893.918 68.0977Z" fill="white"/>
<path d="M942.453 60.2852V68.3418H932.834V92.8535H923.703V68.3418H914.084V60.2852H942.453Z" fill="white"/>
<path d="M967.746 84.9434V93H947.58V84.9434H953.098V68.3418H947.58V60.2852H967.746V68.3418H962.229V84.9434H967.746Z" fill="white"/>
<path d="M989.377 59.5039C992.632 59.5039 995.578 60.1549 998.215 61.457C1000.85 62.7591 1002.95 64.6471 1004.51 67.1211C1006.08 69.5951 1006.86 72.5898 1006.86 76.1055C1006.86 78.5143 1006.45 80.793 1005.64 82.9414C1004.86 85.0573 1003.73 86.929 1002.27 88.5566C1000.8 90.1842 999.045 91.4538 996.994 92.3652C994.943 93.2767 992.648 93.7324 990.109 93.7324C988.612 93.7324 987.017 93.6673 985.324 93.5371C983.664 93.4395 982.036 93.2767 980.441 93.0488C978.846 92.8535 977.382 92.6257 976.047 92.3652V60.8711C978.13 60.513 980.327 60.2038 982.639 59.9434C984.982 59.6504 987.229 59.5039 989.377 59.5039ZM989.67 68.0488C988.921 68.0488 988.14 68.1139 987.326 68.2441C986.545 68.3418 985.829 68.472 985.178 68.6348V84.6016C985.926 84.8294 986.691 84.9922 987.473 85.0898C988.254 85.1549 988.986 85.1875 989.67 85.1875C991.33 85.1875 992.73 84.8132 993.869 84.0645C995.041 83.2832 995.936 82.2415 996.555 80.9395C997.173 79.6374 997.482 78.1888 997.482 76.5938C997.482 74.0547 996.799 72.0039 995.432 70.4414C994.097 68.8464 992.176 68.0488 989.67 68.0488Z" fill="white"/>
<path d="M1032.88 84.9434V93H1012.72V84.9434H1018.23V68.3418H1012.72V60.2852H1032.88V68.3418H1027.37V84.9434H1032.88Z" fill="white"/>
<path d="M1063.3 73.0293V79.8652H1050.31V85.1875H1065.01V93H1041.18V60.2852H1065.01V67.8535H1050.31V73.0293H1063.3Z" fill="white"/>
<path d="M1103.2 60.2852V93.4883H1099.97L1082.44 76.9355V93H1073.31V59.7969H1076.54L1094.06 76.6426V60.2852H1103.2Z" fill="white"/>
<path d="M293.625 59.7969L294.535 59.3821L294.268 58.7969H293.625V59.7969ZM308.762 93V94H310.317L309.672 92.5852L308.762 93ZM298.117 93L297.178 93.3443L297.419 94H298.117V93ZM296.506 88.6055L297.445 88.2612L297.204 87.6055H296.506V88.6055ZM286.154 88.6055V87.6055H285.456L285.215 88.2612L286.154 88.6055ZM284.543 93V94H285.241L285.482 93.3443L284.543 93ZM273.898 93L272.989 92.5852L272.344 94H273.898V93ZM289.035 59.7969V58.7969H288.392L288.125 59.3821L289.035 59.7969ZM291.33 74.543L292.268 74.1963L291.33 71.6582L290.392 74.1963L291.33 74.543ZM288.84 81.2812L287.902 80.9346L287.404 82.2812H288.84V81.2812ZM293.82 81.2812V82.2812H295.256L294.758 80.9346L293.82 81.2812ZM335.422 60.2852H336.422V59.2852H335.422V60.2852ZM335.422 68.3418V69.3418H336.422V68.3418H335.422ZM325.803 68.3418V67.3418H324.803V68.3418H325.803ZM325.803 92.8535V93.8535H326.803V92.8535H325.803ZM316.672 92.8535H315.672V93.8535H316.672V92.8535ZM316.672 68.3418H317.672V67.3418H316.672V68.3418ZM307.053 68.3418H306.053V69.3418H307.053V68.3418ZM307.053 60.2852V59.2852H306.053V60.2852H307.053ZM363.156 73.0293H364.156V72.0293H363.156V73.0293ZM363.156 79.8652V80.8652H364.156V79.8652H363.156ZM350.168 79.8652V78.8652H349.168V79.8652H350.168ZM350.168 85.1875H349.168V86.1875H350.168V85.1875ZM364.865 85.1875H365.865V84.1875H364.865V85.1875ZM364.865 93V94H365.865V93H364.865ZM341.037 93H340.037V94H341.037V93ZM341.037 60.2852V59.2852H340.037V60.2852H341.037ZM364.865 60.2852H365.865V59.2852H364.865V60.2852ZM364.865 67.8535V68.8535H365.865V67.8535H364.865ZM350.168 67.8535V66.8535H349.168V67.8535H350.168ZM350.168 73.0293H349.168V74.0293H350.168V73.0293ZM382.297 60.2852H383.297V59.2852H382.297V60.2852ZM382.297 84.9434H381.297V85.9434H382.297V84.9434ZM396.994 84.9434H397.994V83.9434H396.994V84.9434ZM396.994 93V94H397.994V93H396.994ZM373.166 93H372.166V94H373.166V93ZM373.166 60.2852V59.2852H372.166V60.2852H373.166ZM423.996 84.9434H424.996V83.9434H423.996V84.9434ZM423.996 93V94H424.996V93H423.996ZM403.83 93H402.83V94H403.83V93ZM403.83 84.9434V83.9434H402.83V84.9434H403.83ZM409.348 84.9434V85.9434H410.348V84.9434H409.348ZM409.348 68.3418H410.348V67.3418H409.348V68.3418ZM403.83 68.3418H402.83V69.3418H403.83V68.3418ZM403.83 60.2852V59.2852H402.83V60.2852H403.83ZM423.996 60.2852H424.996V59.2852H423.996V60.2852ZM423.996 68.3418V69.3418H424.996V68.3418H423.996ZM418.479 68.3418V67.3418H417.479V68.3418H418.479ZM418.479 84.9434H417.479V85.9434H418.479V84.9434ZM454.416 73.0293H455.416V72.0293H454.416V73.0293ZM454.416 79.8652V80.8652H455.416V79.8652H454.416ZM441.428 79.8652V78.8652H440.428V79.8652H441.428ZM441.428 85.1875H440.428V86.1875H441.428V85.1875ZM456.125 85.1875H457.125V84.1875H456.125V85.1875ZM456.125 93V94H457.125V93H456.125ZM432.297 93H431.297V94H432.297V93ZM432.297 60.2852V59.2852H431.297V60.2852H432.297ZM456.125 60.2852H457.125V59.2852H456.125V60.2852ZM456.125 67.8535V68.8535H457.125V67.8535H456.125ZM441.428 67.8535V66.8535H440.428V67.8535H441.428ZM441.428 73.0293H440.428V74.0293H441.428V73.0293ZM483.273 60.9688L482.993 61.9288L482.999 61.9303L483.273 60.9688ZM490.598 66.6328L489.711 67.0961L489.716 67.1039L489.72 67.1117L490.598 66.6328ZM489.67 77.7168L488.918 77.0572L488.911 77.066L489.67 77.7168ZM484.396 80.9883L484.133 80.0235L482.711 80.4113L483.597 81.5893L484.396 80.9883ZM493.43 93V94H495.433L494.229 92.399L493.43 93ZM482.297 93L481.467 93.5583L481.764 94H482.297V93ZM473.557 80.0117L474.386 79.4534L472.557 76.7345V80.0117H473.557ZM473.557 93V94H474.557V93H473.557ZM464.426 93H463.426V94H464.426V93ZM464.426 60.2852V59.2852H463.426V60.2852H464.426ZM473.557 68.8301V67.8301H472.557V68.8301H473.557ZM473.557 74.9336H472.557V75.6411L473.224 75.8766L473.557 74.9336ZM475.314 75.4219L475.108 76.4005L475.118 76.4025L475.314 75.4219ZM480.93 74.7871L481.435 75.6499L481.444 75.6446L480.93 74.7871ZM480.93 69.5137L480.495 70.4142L480.513 70.4231L480.532 70.4312L480.93 69.5137ZM535.08 84.9434H536.08V83.9434H535.08V84.9434ZM535.08 93V94H536.08V93H535.08ZM512.473 93H511.473V94H512.473V93ZM512.473 84.9434V83.9434H511.473V84.9434H512.473ZM519.357 84.9434V85.9434H520.357V84.9434H519.357ZM519.357 72.0039H520.357V69.8783L518.72 71.2335L519.357 72.0039ZM516.086 73.957L515.698 73.0354L515.689 73.0392L516.086 73.957ZM512.717 75.1777H511.717V76.4978L512.988 76.1404L512.717 75.1777ZM512.717 66.1445L512.387 65.2003L511.717 65.4343V66.1445H512.717ZM521.604 60.2852V59.2852H521.114L520.814 59.6712L521.604 60.2852ZM528.488 60.2852H529.488V59.2852H528.488V60.2852ZM528.488 84.9434H527.488V85.9434H528.488V84.9434ZM570.383 76.4961H571.383V75.4961H570.383V76.4961ZM570.383 83.8203V84.8203H571.383V83.8203H570.383ZM555.686 83.8203H554.686V84.8203H555.686V83.8203ZM555.686 76.4961V75.4961H554.686V76.4961H555.686ZM601.486 60.2852H602.486V59.2852H601.486V60.2852ZM601.486 84.9434H600.486V85.9434H601.486V84.9434ZM616.184 84.9434H617.184V83.9434H616.184V84.9434ZM616.184 93V94H617.184V93H616.184ZM592.355 93H591.355V94H592.355V93ZM592.355 60.2852V59.2852H591.355V60.2852H592.355ZM624.973 59.4062L625.166 58.4251L624.324 58.2591L624.032 59.0663L624.973 59.4062ZM631.906 60.7734L632.813 61.1944L633.35 60.0388L632.1 59.7923L631.906 60.7734ZM626.535 72.3457L626.405 73.3372L627.133 73.4327L627.442 72.7667L626.535 72.3457ZM620.578 71.5645L619.638 71.2245L619.215 72.3942L620.448 72.556L620.578 71.5645ZM657.443 84.9434H658.443V83.9434H657.443V84.9434ZM657.443 93V94H658.443V93H657.443ZM637.277 93H636.277V94H637.277V93ZM637.277 84.9434V83.9434H636.277V84.9434H637.277ZM642.795 84.9434V85.9434H643.795V84.9434H642.795ZM642.795 68.3418H643.795V67.3418H642.795V68.3418ZM637.277 68.3418H636.277V69.3418H637.277V68.3418ZM637.277 60.2852V59.2852H636.277V60.2852H637.277ZM657.443 60.2852H658.443V59.2852H657.443V60.2852ZM657.443 68.3418V69.3418H658.443V68.3418H657.443ZM651.926 68.3418V67.3418H650.926V68.3418H651.926ZM651.926 84.9434H650.926V85.9434H651.926V84.9434ZM681.564 59.7969L682.474 59.3821L682.208 58.7969H681.564V59.7969ZM696.701 93V94H698.256L697.611 92.5852L696.701 93ZM686.057 93L685.118 93.3443L685.358 94H686.057V93ZM684.445 88.6055L685.384 88.2612L685.144 87.6055H684.445V88.6055ZM674.094 88.6055V87.6055H673.395L673.155 88.2612L674.094 88.6055ZM672.482 93V94H673.181L673.421 93.3443L672.482 93ZM661.838 93L660.928 92.5852L660.283 94H661.838V93ZM676.975 59.7969V58.7969H676.331L676.065 59.3821L676.975 59.7969ZM679.27 74.543L680.208 74.1963L679.27 71.6582L678.332 74.1963L679.27 74.543ZM676.779 81.2812L675.841 80.9346L675.344 82.2812H676.779V81.2812ZM681.76 81.2812V82.2812H683.195L682.698 80.9346L681.76 81.2812ZM732.053 59.7969L732.963 59.3821L732.696 58.7969H732.053V59.7969ZM747.189 93V94H748.744L748.099 92.5852L747.189 93ZM736.545 93L735.606 93.3443L735.846 94H736.545V93ZM734.934 88.6055L735.872 88.2612L735.632 87.6055H734.934V88.6055ZM724.582 88.6055V87.6055H723.884L723.643 88.2612L724.582 88.6055ZM722.971 93V94H723.669L723.91 93.3443L722.971 93ZM712.326 93L711.416 92.5852L710.771 94H712.326V93ZM727.463 59.7969V58.7969H726.82L726.553 59.3821L727.463 59.7969ZM729.758 74.543L730.696 74.1963L729.758 71.6582L728.82 74.1963L729.758 74.543ZM727.268 81.2812L726.33 80.9346L725.832 82.2812H727.268V81.2812ZM732.248 81.2812V82.2812H733.684L733.186 80.9346L732.248 81.2812ZM779.221 60.1875H780.221V59.1875H779.221V60.1875ZM771.848 92.1211L772.284 93.0208L772.29 93.0181L771.848 92.1211ZM757.004 92.1211L756.562 93.0182L756.572 93.0232L757.004 92.1211ZM749.631 60.1875V59.1875H748.631V60.1875H749.631ZM758.762 60.1875H759.762V59.1875H758.762V60.1875ZM760.129 83.625L759.357 84.2607L759.362 84.2664L759.366 84.272L760.129 83.625ZM768.723 83.5762L769.475 84.2347L769.48 84.229L769.485 84.2231L768.723 83.5762ZM770.09 60.1875V59.1875H769.09V60.1875H770.09ZM823.068 60.7246L822.707 61.6572L822.716 61.6607L822.725 61.664L823.068 60.7246ZM832.297 69.416L831.378 69.8117L831.384 69.8235L832.297 69.416ZM831.076 86.2617L831.905 86.8212L831.908 86.8164L831.076 86.2617ZM824.387 92.0723L823.961 91.1672L822.198 91.9958L823.899 92.9455L824.387 92.0723ZM829.123 93.4883L829.031 94.484L829.033 94.4842L829.123 93.4883ZM834.641 93.7324H835.641V92.7324H834.641V93.7324ZM834.641 101.35V102.35H835.641V101.35H834.641ZM828.391 100.52L828.633 99.5493L828.62 99.5461L828.391 100.52ZM821.994 98.0293L821.503 98.9001L821.508 98.9035L821.994 98.0293ZM816.721 93.7324L817.476 93.0769L817.177 92.7324H816.721V93.7324ZM810.324 92.6094L809.963 93.5419L809.972 93.5454L809.981 93.5487L810.324 92.6094ZM801.096 83.8691L800.177 84.2648L800.182 84.2766L801.096 83.8691ZM801.096 69.416L800.182 69.0085L800.177 69.0204L801.096 69.416ZM810.324 60.7246L810.672 61.6622L810.68 61.6591L810.324 60.7246ZM810.08 72.2969L809.195 71.832L809.19 71.8406L810.08 72.2969ZM810.08 81.0371L809.186 81.4843L809.192 81.4979L809.2 81.5112L810.08 81.0371ZM820.627 84.0645L820.089 83.2217L820.078 83.2287L820.627 84.0645ZM823.361 81.0371L824.251 81.4934L824.256 81.4843L823.361 81.0371ZM823.361 72.2969L822.467 72.7441L822.472 72.7532L823.361 72.2969ZM820.627 69.2207L820.078 70.0565L820.089 70.0634L820.627 69.2207ZM871.066 60.1875H872.066V59.1875H871.066V60.1875ZM863.693 92.1211L864.13 93.0208L864.135 93.0181L863.693 92.1211ZM848.85 92.1211L848.408 93.0182L848.418 93.0232L848.85 92.1211ZM841.477 60.1875V59.1875H840.477V60.1875H841.477ZM850.607 60.1875H851.607V59.1875H850.607V60.1875ZM851.975 83.625L851.203 84.2607L851.207 84.2664L851.212 84.272L851.975 83.625ZM860.568 83.5762L861.321 84.2347L861.326 84.229L861.331 84.2231L860.568 83.5762ZM861.936 60.1875V59.1875H860.936V60.1875H861.936ZM900.266 60.7246L899.905 61.6572L899.914 61.6607L899.923 61.664L900.266 60.7246ZM909.494 69.416L908.576 69.8117L908.581 69.8235L909.494 69.416ZM909.494 83.8691L908.581 83.4617L908.576 83.4735L909.494 83.8691ZM900.266 92.6094L900.613 93.547L900.622 93.5439L900.266 92.6094ZM887.521 92.6094L887.16 93.5419L887.169 93.5454L887.179 93.5487L887.521 92.6094ZM878.293 83.8691L877.374 84.2648L877.38 84.2766L878.293 83.8691ZM878.293 69.416L877.38 69.0085L877.375 69.0204L878.293 69.416ZM887.521 60.7246L887.869 61.6622L887.877 61.6591L887.521 60.7246ZM887.277 72.2969L886.392 71.832L886.388 71.8406L887.277 72.2969ZM887.277 81.0371L886.383 81.4843L886.39 81.4979L886.397 81.5112L887.277 81.0371ZM897.824 84.0645L897.286 83.2217L897.275 83.2287L897.824 84.0645ZM900.559 81.0371L901.448 81.4934L901.453 81.4843L900.559 81.0371ZM900.559 72.2969L899.664 72.7441L899.669 72.7532L900.559 72.2969ZM897.824 69.2207L897.275 70.0565L897.286 70.0634L897.824 69.2207ZM942.453 60.2852H943.453V59.2852H942.453V60.2852ZM942.453 68.3418V69.3418H943.453V68.3418H942.453ZM932.834 68.3418V67.3418H931.834V68.3418H932.834ZM932.834 92.8535V93.8535H933.834V92.8535H932.834ZM923.703 92.8535H922.703V93.8535H923.703V92.8535ZM923.703 68.3418H924.703V67.3418H923.703V68.3418ZM914.084 68.3418H913.084V69.3418H914.084V68.3418ZM914.084 60.2852V59.2852H913.084V60.2852H914.084ZM967.746 84.9434H968.746V83.9434H967.746V84.9434ZM967.746 93V94H968.746V93H967.746ZM947.58 93H946.58V94H947.58V93ZM947.58 84.9434V83.9434H946.58V84.9434H947.58ZM953.098 84.9434V85.9434H954.098V84.9434H953.098ZM953.098 68.3418H954.098V67.3418H953.098V68.3418ZM947.58 68.3418H946.58V69.3418H947.58V68.3418ZM947.58 60.2852V59.2852H946.58V60.2852H947.58ZM967.746 60.2852H968.746V59.2852H967.746V60.2852ZM967.746 68.3418V69.3418H968.746V68.3418H967.746ZM962.229 68.3418V67.3418H961.229V68.3418H962.229ZM962.229 84.9434H961.229V85.9434H962.229V84.9434ZM1005.64 82.9414L1004.7 82.5872L1004.7 82.595L1005.64 82.9414ZM985.324 93.5371L985.401 92.5401L985.392 92.5394L985.383 92.5388L985.324 93.5371ZM980.441 93.0488L980.583 92.0589L980.573 92.0575L980.563 92.0562L980.441 93.0488ZM976.047 92.3652H975.047V93.189L975.855 93.3467L976.047 92.3652ZM976.047 60.8711L975.877 59.8855L975.047 60.0283V60.8711H976.047ZM982.639 59.9434L982.751 60.9371L982.763 60.9356L982.639 59.9434ZM987.326 68.2441L987.45 69.2364L987.467 69.2343L987.484 69.2316L987.326 68.2441ZM985.178 68.6348L984.935 67.6646L984.178 67.854V68.6348H985.178ZM985.178 84.6016H984.178V85.3425L984.887 85.5582L985.178 84.6016ZM987.473 85.0898L987.349 86.0821L987.369 86.0847L987.39 86.0864L987.473 85.0898ZM993.869 84.0645L994.418 84.9002L994.424 84.8965L993.869 84.0645ZM995.432 70.4414L994.665 71.0831L994.672 71.0916L994.679 71.0999L995.432 70.4414ZM1032.88 84.9434H1033.88V83.9434H1032.88V84.9434ZM1032.88 93V94H1033.88V93H1032.88ZM1012.72 93H1011.72V94H1012.72V93ZM1012.72 84.9434V83.9434H1011.72V84.9434H1012.72ZM1018.23 84.9434V85.9434H1019.23V84.9434H1018.23ZM1018.23 68.3418H1019.23V67.3418H1018.23V68.3418ZM1012.72 68.3418H1011.72V69.3418H1012.72V68.3418ZM1012.72 60.2852V59.2852H1011.72V60.2852H1012.72ZM1032.88 60.2852H1033.88V59.2852H1032.88V60.2852ZM1032.88 68.3418V69.3418H1033.88V68.3418H1032.88ZM1027.37 68.3418V67.3418H1026.37V68.3418H1027.37ZM1027.37 84.9434H1026.37V85.9434H1027.37V84.9434ZM1063.3 73.0293H1064.3V72.0293H1063.3V73.0293ZM1063.3 79.8652V80.8652H1064.3V79.8652H1063.3ZM1050.31 79.8652V78.8652H1049.31V79.8652H1050.31ZM1050.31 85.1875H1049.31V86.1875H1050.31V85.1875ZM1065.01 85.1875H1066.01V84.1875H1065.01V85.1875ZM1065.01 93V94H1066.01V93H1065.01ZM1041.18 93H1040.18V94H1041.18V93ZM1041.18 60.2852V59.2852H1040.18V60.2852H1041.18ZM1065.01 60.2852H1066.01V59.2852H1065.01V60.2852ZM1065.01 67.8535V68.8535H1066.01V67.8535H1065.01ZM1050.31 67.8535V66.8535H1049.31V67.8535H1050.31ZM1050.31 73.0293H1049.31V74.0293H1050.31V73.0293ZM1103.2 60.2852H1104.2V59.2852H1103.2V60.2852ZM1103.2 93.4883V94.4883H1104.2V93.4883H1103.2ZM1099.97 93.4883L1099.29 94.2154L1099.58 94.4883H1099.97V93.4883ZM1082.44 76.9355L1083.13 76.2085L1081.44 74.6159V76.9355H1082.44ZM1082.44 93V94H1083.44V93H1082.44ZM1073.31 93H1072.31V94H1073.31V93ZM1073.31 59.7969V58.7969H1072.31V59.7969H1073.31ZM1076.54 59.7969L1077.23 59.0758L1076.94 58.7969H1076.54V59.7969ZM1094.06 76.6426L1093.37 77.3636L1095.06 78.9905V76.6426H1094.06ZM1094.06 60.2852V59.2852H1093.06V60.2852H1094.06ZM6 80.5C6 37.1457 41.1456 2 84.5 2V0C40.0411 0 4 36.0411 4 80.5H6ZM84.5 2H1297.5V0H84.5V2ZM1297.5 2C1340.85 2 1376 37.1457 1376 80.5H1378C1378 36.0411 1341.96 0 1297.5 0V2ZM1376 80.5C1376 123.854 1340.85 159 1297.5 159V161C1341.96 161 1378 124.959 1378 80.5H1376ZM1297.5 159H84.5V161H1297.5V159ZM84.5 159C41.1456 159 6 123.854 6 80.5H4C4 124.959 40.0411 161 84.5 161V159ZM292.715 60.2117L307.852 93.4148L309.672 92.5852L294.535 59.3821L292.715 60.2117ZM308.762 92H298.117V94H308.762V92ZM299.056 92.6557L297.445 88.2612L295.567 88.9497L297.178 93.3443L299.056 92.6557ZM296.506 87.6055H286.154V89.6055H296.506V87.6055ZM285.215 88.2612L283.604 92.6557L285.482 93.3443L287.093 88.9497L285.215 88.2612ZM284.543 92H273.898V94H284.543V92ZM274.808 93.4148L289.945 60.2117L288.125 59.3821L272.989 92.5852L274.808 93.4148ZM289.035 60.7969H293.625V58.7969H289.035V60.7969ZM290.392 74.1963L287.902 80.9346L289.778 81.6279L292.268 74.8896L290.392 74.1963ZM288.84 82.2812H293.82V80.2812H288.84V82.2812ZM294.758 80.9346L292.268 74.1963L290.392 74.8896L292.882 81.6279L294.758 80.9346ZM334.422 60.2852V68.3418H336.422V60.2852H334.422ZM335.422 67.3418H325.803V69.3418H335.422V67.3418ZM324.803 68.3418V92.8535H326.803V68.3418H324.803ZM325.803 91.8535H316.672V93.8535H325.803V91.8535ZM317.672 92.8535V68.3418H315.672V92.8535H317.672ZM316.672 67.3418H307.053V69.3418H316.672V67.3418ZM308.053 68.3418V60.2852H306.053V68.3418H308.053ZM307.053 61.2852H335.422V59.2852H307.053V61.2852ZM362.156 73.0293V79.8652H364.156V73.0293H362.156ZM363.156 78.8652H350.168V80.8652H363.156V78.8652ZM349.168 79.8652V85.1875H351.168V79.8652H349.168ZM350.168 86.1875H364.865V84.1875H350.168V86.1875ZM363.865 85.1875V93H365.865V85.1875H363.865ZM364.865 92H341.037V94H364.865V92ZM342.037 93V60.2852H340.037V93H342.037ZM341.037 61.2852H364.865V59.2852H341.037V61.2852ZM363.865 60.2852V67.8535H365.865V60.2852H363.865ZM364.865 66.8535H350.168V68.8535H364.865V66.8535ZM349.168 67.8535V73.0293H351.168V67.8535H349.168ZM350.168 74.0293H363.156V72.0293H350.168V74.0293ZM381.297 60.2852V84.9434H383.297V60.2852H381.297ZM382.297 85.9434H396.994V83.9434H382.297V85.9434ZM395.994 84.9434V93H397.994V84.9434H395.994ZM396.994 92H373.166V94H396.994V92ZM374.166 93V60.2852H372.166V93H374.166ZM373.166 61.2852H382.297V59.2852H373.166V61.2852ZM422.996 84.9434V93H424.996V84.9434H422.996ZM423.996 92H403.83V94H423.996V92ZM404.83 93V84.9434H402.83V93H404.83ZM403.83 85.9434H409.348V83.9434H403.83V85.9434ZM410.348 84.9434V68.3418H408.348V84.9434H410.348ZM409.348 67.3418H403.83V69.3418H409.348V67.3418ZM404.83 68.3418V60.2852H402.83V68.3418H404.83ZM403.83 61.2852H423.996V59.2852H403.83V61.2852ZM422.996 60.2852V68.3418H424.996V60.2852H422.996ZM423.996 67.3418H418.479V69.3418H423.996V67.3418ZM417.479 68.3418V84.9434H419.479V68.3418H417.479ZM418.479 85.9434H423.996V83.9434H418.479V85.9434ZM453.416 73.0293V79.8652H455.416V73.0293H453.416ZM454.416 78.8652H441.428V80.8652H454.416V78.8652ZM440.428 79.8652V85.1875H442.428V79.8652H440.428ZM441.428 86.1875H456.125V84.1875H441.428V86.1875ZM455.125 85.1875V93H457.125V85.1875H455.125ZM456.125 92H432.297V94H456.125V92ZM433.297 93V60.2852H431.297V93H433.297ZM432.297 61.2852H456.125V59.2852H432.297V61.2852ZM455.125 60.2852V67.8535H457.125V60.2852H455.125ZM456.125 66.8535H441.428V68.8535H456.125V66.8535ZM440.428 67.8535V73.0293H442.428V67.8535H440.428ZM441.428 74.0293H454.416V72.0293H441.428V74.0293ZM478.439 61.2852C480.007 61.2852 481.524 61.5001 482.993 61.9288L483.553 60.0087C481.898 59.526 480.192 59.2852 478.439 59.2852V61.2852ZM482.999 61.9303C484.483 62.3545 485.806 63.0023 486.974 63.8708L488.167 62.2659C486.796 61.2464 485.254 60.4945 483.548 60.0072L482.999 61.9303ZM486.974 63.8708C488.12 64.723 489.031 65.7942 489.711 67.0961L491.484 66.1696C490.667 64.6068 489.56 63.3017 488.167 62.2659L486.974 63.8708ZM489.72 67.1117C490.408 68.373 490.77 69.8791 490.77 71.6621H492.77C492.77 69.6039 492.35 67.7572 491.476 66.154L489.72 67.1117ZM490.77 71.6621C490.77 73.8996 490.134 75.6718 488.918 77.0572L490.422 78.3764C492.005 76.5717 492.77 74.3074 492.77 71.6621H490.77ZM488.911 77.066C487.682 78.4998 486.101 79.4869 484.133 80.0235L484.66 81.953C486.989 81.3178 488.924 80.1239 490.429 78.3676L488.911 77.066ZM483.597 81.5893L492.63 93.601L494.229 92.399L485.196 80.3872L483.597 81.5893ZM493.43 92H482.297V94H493.43V92ZM483.127 92.4417L474.386 79.4534L472.727 80.57L481.467 93.5583L483.127 92.4417ZM472.557 80.0117V93H474.557V80.0117H472.557ZM473.557 92H464.426V94H473.557V92ZM465.426 93V60.2852H463.426V93H465.426ZM464.426 61.2852H478.439V59.2852H464.426V61.2852ZM472.557 68.8301V74.9336H474.557V68.8301H472.557ZM473.224 75.8766C473.822 76.0876 474.45 76.2618 475.108 76.4004L475.52 74.4433C474.942 74.3215 474.398 74.1702 473.889 73.9906L473.224 75.8766ZM475.118 76.4025C475.839 76.5465 476.588 76.6172 477.365 76.6172V74.6172C476.71 74.6172 476.092 74.5576 475.511 74.4413L475.118 76.4025ZM477.365 76.6172C478.922 76.6172 480.298 76.3168 481.435 75.6498L480.424 73.9244C479.674 74.3642 478.673 74.6172 477.365 74.6172V76.6172ZM481.444 75.6446C482.733 74.8716 483.395 73.661 483.395 72.1504H481.395C481.395 72.9835 481.08 73.5307 480.415 73.9296L481.444 75.6446ZM483.395 72.1504C483.395 71.3668 483.252 70.6334 482.902 70.0046C482.545 69.3609 482.005 68.8898 481.327 68.5961L480.532 70.4312C480.831 70.5607 481.023 70.7407 481.154 70.9759C481.293 71.226 481.395 71.5993 481.395 72.1504H483.395ZM481.364 68.6131C480.245 68.0725 478.896 67.8301 477.365 67.8301V69.8301C478.699 69.8301 479.727 70.0434 480.495 70.4142L481.364 68.6131ZM477.365 67.8301H473.557V69.8301H477.365V67.8301ZM534.08 84.9434V93H536.08V84.9434H534.08ZM535.08 92H512.473V94H535.08V92ZM513.473 93V84.9434H511.473V93H513.473ZM512.473 85.9434H519.357V83.9434H512.473V85.9434ZM520.357 84.9434V72.0039H518.357V84.9434H520.357ZM518.72 71.2335C517.858 71.9468 516.853 72.5489 515.698 73.0354L516.474 74.8787C517.793 74.3235 518.969 73.6235 519.995 72.7743L518.72 71.2335ZM515.689 73.0392C514.517 73.5459 513.437 73.9364 512.446 74.2151L512.988 76.1404C514.08 75.8331 515.246 75.4099 516.483 74.8749L515.689 73.0392ZM513.717 75.1777V66.1445H511.717V75.1777H513.717ZM513.046 67.0887C514.52 66.5745 516.124 65.8121 517.855 64.8135L516.856 63.0811C515.201 64.0356 513.713 64.738 512.387 65.2003L513.046 67.0887ZM517.855 64.8135C519.654 63.7758 521.17 62.4713 522.393 60.8991L520.814 59.6712C519.758 61.0287 518.443 62.1656 516.856 63.0811L517.855 64.8135ZM521.604 61.2852H528.488V59.2852H521.604V61.2852ZM527.488 60.2852V84.9434H529.488V60.2852H527.488ZM528.488 85.9434H535.08V83.9434H528.488V85.9434ZM569.383 76.4961V83.8203H571.383V76.4961H569.383ZM570.383 82.8203H555.686V84.8203H570.383V82.8203ZM556.686 83.8203V76.4961H554.686V83.8203H556.686ZM555.686 77.4961H570.383V75.4961H555.686V77.4961ZM600.486 60.2852V84.9434H602.486V60.2852H600.486ZM601.486 85.9434H616.184V83.9434H601.486V85.9434ZM615.184 84.9434V93H617.184V84.9434H615.184ZM616.184 92H592.355V94H616.184V92ZM593.355 93V60.2852H591.355V93H593.355ZM592.355 61.2852H601.486V59.2852H592.355V61.2852ZM624.779 60.3874L631.713 61.7545L632.1 59.7923L625.166 58.4251L624.779 60.3874ZM630.999 60.3524L625.628 71.9247L627.442 72.7667L632.813 61.1944L630.999 60.3524ZM626.665 71.3542L620.708 70.5729L620.448 72.556L626.405 73.3372L626.665 71.3542ZM621.519 71.9044L625.913 59.7462L624.032 59.0663L619.638 71.2245L621.519 71.9044ZM656.443 84.9434V93H658.443V84.9434H656.443ZM657.443 92H637.277V94H657.443V92ZM638.277 93V84.9434H636.277V93H638.277ZM637.277 85.9434H642.795V83.9434H637.277V85.9434ZM643.795 84.9434V68.3418H641.795V84.9434H643.795ZM642.795 67.3418H637.277V69.3418H642.795V67.3418ZM638.277 68.3418V60.2852H636.277V68.3418H638.277ZM637.277 61.2852H657.443V59.2852H637.277V61.2852ZM656.443 60.2852V68.3418H658.443V60.2852H656.443ZM657.443 67.3418H651.926V69.3418H657.443V67.3418ZM650.926 68.3418V84.9434H652.926V68.3418H650.926ZM651.926 85.9434H657.443V83.9434H651.926V85.9434ZM680.655 60.2117L695.791 93.4148L697.611 92.5852L682.474 59.3821L680.655 60.2117ZM696.701 92H686.057V94H696.701V92ZM686.996 92.6557L685.384 88.2612L683.506 88.9497L685.118 93.3443L686.996 92.6557ZM684.445 87.6055H674.094V89.6055H684.445V87.6055ZM673.155 88.2612L671.544 92.6557L673.421 93.3443L675.033 88.9497L673.155 88.2612ZM672.482 92H661.838V94H672.482V92ZM662.748 93.4148L677.885 60.2117L676.065 59.3821L660.928 92.5852L662.748 93.4148ZM676.975 60.7969H681.564V58.7969H676.975V60.7969ZM678.332 74.1963L675.841 80.9346L677.717 81.6279L680.208 74.8896L678.332 74.1963ZM676.779 82.2812H681.76V80.2812H676.779V82.2812ZM682.698 80.9346L680.208 74.1963L678.332 74.8896L680.822 81.6279L682.698 80.9346ZM731.143 60.2117L746.28 93.4148L748.099 92.5852L732.963 59.3821L731.143 60.2117ZM747.189 92H736.545V94H747.189V92ZM737.484 92.6557L735.872 88.2612L733.995 88.9497L735.606 93.3443L737.484 92.6557ZM734.934 87.6055H724.582V89.6055H734.934V87.6055ZM723.643 88.2612L722.032 92.6557L723.91 93.3443L725.521 88.9497L723.643 88.2612ZM722.971 92H712.326V94H722.971V92ZM713.236 93.4148L728.373 60.2117L726.553 59.3821L711.416 92.5852L713.236 93.4148ZM727.463 60.7969H732.053V58.7969H727.463V60.7969ZM728.82 74.1963L726.33 80.9346L728.206 81.6279L730.696 74.8896L728.82 74.1963ZM727.268 82.2812H732.248V80.2812H727.268V82.2812ZM733.186 80.9346L730.696 74.1963L728.82 74.8896L731.31 81.6279L733.186 80.9346ZM778.221 60.1875V80.0605H780.221V60.1875H778.221ZM778.221 80.0605C778.221 82.7301 777.594 84.9752 776.381 86.8393L778.057 87.9302C779.513 85.6928 780.221 83.055 780.221 80.0605H778.221ZM776.381 86.8393C775.146 88.7358 773.494 90.1948 771.406 91.2241L772.29 93.0181C774.693 91.8338 776.622 90.1353 778.057 87.9302L776.381 86.8393ZM771.411 91.2214C769.348 92.2226 767.026 92.7324 764.426 92.7324V94.7324C767.294 94.7324 769.92 94.1681 772.284 93.0208L771.411 91.2214ZM764.426 92.7324C761.86 92.7324 759.536 92.2234 757.435 91.219L756.572 93.0232C758.964 94.1672 761.588 94.7324 764.426 94.7324V92.7324ZM757.446 91.2241C755.357 90.1948 753.705 88.7358 752.471 86.8393L750.795 87.9302C752.23 90.1353 754.159 91.8338 756.562 93.0181L757.446 91.2241ZM752.471 86.8393C751.258 84.9752 750.631 82.7301 750.631 80.0605H748.631C748.631 83.055 749.339 85.6928 750.795 87.9302L752.471 86.8393ZM750.631 80.0605V60.1875H748.631V80.0605H750.631ZM749.631 61.1875H758.762V59.1875H749.631V61.1875ZM757.762 60.1875V79.4258H759.762V60.1875H757.762ZM757.762 79.4258C757.762 81.3066 758.272 82.9438 759.357 84.2607L760.901 82.9893C760.162 82.0927 759.762 80.9304 759.762 79.4258H757.762ZM759.366 84.272C760.539 85.6536 762.312 86.2229 764.442 86.1874L764.409 84.1876C762.634 84.2172 761.542 83.7449 760.891 82.978L759.366 84.272ZM764.442 86.1874C766.559 86.1521 768.311 85.5648 769.475 84.2347L767.97 82.9177C767.311 83.6709 766.199 84.1578 764.409 84.1876L764.442 86.1874ZM769.485 84.2231C770.579 82.9335 771.09 81.3056 771.09 79.4258H769.09C769.09 80.9314 768.689 82.0704 767.96 82.9292L769.485 84.2231ZM771.09 79.4258V60.1875H769.09V79.4258H771.09ZM770.09 61.1875H779.221V59.1875H770.09V61.1875ZM816.721 60.5527C818.814 60.5527 820.807 60.9215 822.707 61.6572L823.429 59.792C821.293 58.9652 819.055 58.5527 816.721 58.5527V60.5527ZM822.725 61.664C824.654 62.368 826.363 63.4062 827.861 64.7815L829.214 63.3084C827.521 61.754 825.584 60.5786 823.411 59.7853L822.725 61.664ZM827.861 64.7815C829.345 66.145 830.519 67.8168 831.378 69.8116L833.215 69.0204C832.252 66.7835 830.919 64.8746 829.214 63.3084L827.861 64.7815ZM831.384 69.8235C832.262 71.7916 832.713 74.058 832.713 76.6426H834.713C834.713 73.8235 834.22 71.2722 833.21 69.0086L831.384 69.8235ZM832.713 76.6426C832.713 80.2597 831.873 83.2639 830.244 85.707L831.908 86.8164C833.795 83.9861 834.713 80.5776 834.713 76.6426H832.713ZM830.247 85.7022C828.585 88.1651 826.491 89.9785 823.961 91.1672L824.812 92.9773C827.686 91.627 830.052 89.5667 831.905 86.8212L830.247 85.7022ZM823.899 92.9455C825.433 93.8013 827.148 94.3097 829.031 94.484L829.215 92.4925C827.582 92.3413 826.14 91.9058 824.874 91.1991L823.899 92.9455ZM829.033 94.4842C830.854 94.6498 832.724 94.7324 834.641 94.7324V92.7324C832.781 92.7324 830.972 92.6523 829.214 92.4924L829.033 94.4842ZM833.641 93.7324V101.35H835.641V93.7324H833.641ZM834.641 100.35C832.782 100.35 830.78 100.086 828.633 99.5494L828.148 101.49C830.428 102.06 832.593 102.35 834.641 102.35V100.35ZM828.62 99.5461C826.499 99.047 824.453 98.2511 822.48 97.1551L821.508 98.9035C823.637 100.086 825.856 100.95 828.162 101.493L828.62 99.5461ZM822.486 97.1585C820.566 96.0745 818.897 94.7146 817.476 93.0769L815.965 94.3879C817.539 96.2007 819.386 97.7054 821.503 98.9001L822.486 97.1585ZM816.721 92.7324C814.622 92.7324 812.607 92.378 810.667 91.67L809.981 93.5487C812.143 94.3381 814.392 94.7324 816.721 94.7324V92.7324ZM810.685 91.6768C808.784 90.9407 807.084 89.8841 805.581 88.5037L804.228 89.9768C805.915 91.526 807.828 92.7156 809.963 93.5419L810.685 91.6768ZM805.581 88.5037C804.093 87.1376 802.901 85.4617 802.009 83.4617L800.182 84.2766C801.178 86.5083 802.525 88.4132 804.228 89.9768L805.581 88.5037ZM802.014 83.4735C801.165 81.5023 800.729 79.2316 800.729 76.6426H798.729C798.729 79.4572 799.204 82.0042 800.177 84.2648L802.014 83.4735ZM800.729 76.6426C800.729 74.0536 801.165 71.7829 802.014 69.8116L800.177 69.0204C799.204 71.2809 798.729 73.8279 798.729 76.6426H800.729ZM802.009 69.8235C802.901 67.8235 804.093 66.1476 805.581 64.7815L804.228 63.3084C802.525 64.8719 801.178 66.7768 800.182 69.0086L802.009 69.8235ZM805.581 64.7815C807.081 63.4037 808.776 62.3655 810.672 61.6622L809.976 59.787C807.836 60.5811 805.918 61.7564 804.228 63.3084L805.581 64.7815ZM810.68 61.6591C812.616 60.9215 814.628 60.5527 816.721 60.5527V58.5527C814.387 58.5527 812.134 58.9652 809.968 59.7901L810.68 61.6591ZM816.721 67.0977C815.076 67.0977 813.58 67.5211 812.265 68.385L813.364 70.0564C814.328 69.423 815.436 69.0977 816.721 69.0977V67.0977ZM812.265 68.385C810.973 69.2341 809.951 70.392 809.195 71.832L810.965 72.7617C811.577 71.5976 812.377 70.7047 813.364 70.0564L812.265 68.385ZM809.19 71.8406C808.457 73.27 808.104 74.8788 808.104 76.6426H810.104C810.104 75.1512 810.401 73.8628 810.97 72.7532L809.19 71.8406ZM808.104 76.6426C808.104 78.4069 808.457 80.0277 809.186 81.4843L810.975 80.5899C810.401 79.4423 810.104 78.1335 810.104 76.6426H808.104ZM809.2 81.5112C809.957 82.9182 810.979 84.055 812.265 84.9002L813.364 83.2287C812.371 82.5765 811.57 81.6951 810.961 80.563L809.2 81.5112ZM812.265 84.9002C813.58 85.7641 815.076 86.1875 816.721 86.1875V84.1875C815.436 84.1875 814.328 83.8622 813.364 83.2287L812.265 84.9002ZM816.721 86.1875C818.366 86.1875 819.861 85.7641 821.176 84.9002L820.078 83.2287C819.114 83.8622 818.006 84.1875 816.721 84.1875V86.1875ZM821.165 84.9071C822.491 84.0605 823.521 82.9163 824.251 81.4934L822.472 80.5808C821.899 81.697 821.107 82.571 820.089 83.2218L821.165 84.9071ZM824.256 81.4843C824.984 80.0277 825.338 78.4069 825.338 76.6426H823.338C823.338 78.1335 823.041 79.4423 822.467 80.5899L824.256 81.4843ZM825.338 76.6426C825.338 74.8788 824.984 73.27 824.251 71.8406L822.472 72.7532C823.041 73.8628 823.338 75.1512 823.338 76.6426H825.338ZM824.256 71.8497C823.528 70.3939 822.497 69.2286 821.165 68.378L820.089 70.0634C821.101 70.7102 821.893 71.5957 822.467 72.7441L824.256 71.8497ZM821.176 68.385C819.861 67.5211 818.366 67.0977 816.721 67.0977V69.0977C818.006 69.0977 819.114 69.423 820.078 70.0564L821.176 68.385ZM870.066 60.1875V80.0605H872.066V60.1875H870.066ZM870.066 80.0605C870.066 82.7301 869.439 84.9752 868.226 86.8393L869.903 87.9302C871.359 85.6928 872.066 83.055 872.066 80.0605H870.066ZM868.226 86.8393C866.992 88.7358 865.34 90.1948 863.251 91.2241L864.135 93.0181C866.539 91.8338 868.468 90.1353 869.903 87.9302L868.226 86.8393ZM863.257 91.2214C861.194 92.2226 858.872 92.7324 856.271 92.7324V94.7324C859.14 94.7324 861.766 94.1681 864.13 93.0208L863.257 91.2214ZM856.271 92.7324C853.706 92.7324 851.381 92.2234 849.281 91.219L848.418 93.0232C850.81 94.1672 853.433 94.7324 856.271 94.7324V92.7324ZM849.292 91.2241C847.203 90.1948 845.551 88.7358 844.317 86.8393L842.64 87.9302C844.075 90.1353 846.004 91.8338 848.408 93.0181L849.292 91.2241ZM844.317 86.8393C843.103 84.9752 842.477 82.7301 842.477 80.0605H840.477C840.477 83.055 841.184 85.6928 842.64 87.9302L844.317 86.8393ZM842.477 80.0605V60.1875H840.477V80.0605H842.477ZM841.477 61.1875H850.607V59.1875H841.477V61.1875ZM849.607 60.1875V79.4258H851.607V60.1875H849.607ZM849.607 79.4258C849.607 81.3066 850.118 82.9438 851.203 84.2607L852.747 82.9893C852.008 82.0927 851.607 80.9304 851.607 79.4258H849.607ZM851.212 84.272C852.384 85.6536 854.157 86.2229 856.288 86.1874L856.255 84.1876C854.479 84.2172 853.388 83.7449 852.737 82.978L851.212 84.272ZM856.288 86.1874C858.404 86.1521 860.157 85.5648 861.321 84.2347L859.816 82.9177C859.157 83.6709 858.045 84.1578 856.255 84.1876L856.288 86.1874ZM861.331 84.2231C862.425 82.9335 862.936 81.3056 862.936 79.4258H860.936C860.936 80.9314 860.535 82.0704 859.806 82.9292L861.331 84.2231ZM862.936 79.4258V60.1875H860.936V79.4258H862.936ZM861.936 61.1875H871.066V59.1875H861.936V61.1875ZM893.918 60.5527C896.011 60.5527 898.004 60.9215 899.905 61.6572L900.627 59.792C898.491 58.9652 896.252 58.5527 893.918 58.5527V60.5527ZM899.923 61.664C901.851 62.368 903.56 63.4062 905.058 64.7815L906.411 63.3084C904.718 61.754 902.782 60.5786 900.609 59.7853L899.923 61.664ZM905.058 64.7815C906.543 66.145 907.716 67.8168 908.576 69.8116L910.413 69.0204C909.449 66.7835 908.116 64.8746 906.411 63.3084L905.058 64.7815ZM908.581 69.8235C909.459 71.7916 909.91 74.058 909.91 76.6426H911.91C911.91 73.8235 911.417 71.2722 910.407 69.0086L908.581 69.8235ZM909.91 76.6426C909.91 79.2271 909.459 81.4936 908.581 83.4617L910.407 84.2766C911.417 82.0129 911.91 79.4617 911.91 76.6426H909.91ZM908.576 83.4735C907.716 85.4684 906.543 87.1402 905.058 88.5037L906.411 89.9768C908.116 88.4106 909.449 86.5017 910.413 84.2648L908.576 83.4735ZM905.058 88.5037C903.557 89.8817 901.844 90.9381 899.91 91.6749L900.622 93.5439C902.789 92.7181 904.721 91.5285 906.411 89.9768L905.058 88.5037ZM899.918 91.6718C898.014 92.378 896.016 92.7324 893.918 92.7324V94.7324C896.247 94.7324 898.481 94.3381 900.613 93.5469L899.918 91.6718ZM893.918 92.7324C891.82 92.7324 889.804 92.378 887.864 91.67L887.179 93.5487C889.341 94.3381 891.589 94.7324 893.918 94.7324V92.7324ZM887.882 91.6768C885.981 90.9407 884.281 89.8841 882.778 88.5037L881.425 89.9768C883.112 91.526 885.026 92.7156 887.16 93.5419L887.882 91.6768ZM882.778 88.5037C881.29 87.1376 880.099 85.4617 879.206 83.4617L877.38 84.2766C878.375 86.5083 879.723 88.4132 881.425 89.9768L882.778 88.5037ZM879.211 83.4735C878.362 81.5023 877.926 79.2316 877.926 76.6426H875.926C875.926 79.4572 876.401 82.0042 877.375 84.2648L879.211 83.4735ZM877.926 76.6426C877.926 74.0536 878.362 71.7829 879.211 69.8116L877.375 69.0204C876.401 71.2809 875.926 73.8279 875.926 76.6426H877.926ZM879.206 69.8235C880.099 67.8235 881.29 66.1476 882.778 64.7815L881.425 63.3084C879.723 64.8719 878.375 66.7768 877.38 69.0086L879.206 69.8235ZM882.778 64.7815C884.278 63.4037 885.973 62.3655 887.869 61.6622L887.174 59.787C885.033 60.5811 883.115 61.7564 881.425 63.3084L882.778 64.7815ZM887.877 61.6591C889.814 60.9215 891.825 60.5527 893.918 60.5527V58.5527C891.584 58.5527 889.331 58.9652 887.165 59.7901L887.877 61.6591ZM893.918 67.0977C892.273 67.0977 890.777 67.5211 889.463 68.385L890.561 70.0564C891.525 69.423 892.633 69.0977 893.918 69.0977V67.0977ZM889.463 68.385C888.17 69.2341 887.148 70.392 886.392 71.832L888.163 72.7617C888.774 71.5976 889.574 70.7047 890.561 70.0564L889.463 68.385ZM886.388 71.8406C885.654 73.27 885.301 74.8788 885.301 76.6426H887.301C887.301 75.1512 887.598 73.8628 888.167 72.7532L886.388 71.8406ZM885.301 76.6426C885.301 78.4069 885.655 80.0277 886.383 81.4843L888.172 80.5899C887.598 79.4423 887.301 78.1335 887.301 76.6426H885.301ZM886.397 81.5112C887.154 82.9182 888.176 84.055 889.463 84.9002L890.561 83.2287C889.568 82.5765 888.767 81.6951 888.158 80.563L886.397 81.5112ZM889.463 84.9002C890.777 85.7641 892.273 86.1875 893.918 86.1875V84.1875C892.633 84.1875 891.525 83.8622 890.561 83.2287L889.463 84.9002ZM893.918 86.1875C895.563 86.1875 897.059 85.7641 898.373 84.9002L897.275 83.2287C896.311 83.8622 895.203 84.1875 893.918 84.1875V86.1875ZM898.363 84.9071C899.688 84.0605 900.719 82.9163 901.448 81.4934L899.669 80.5808C899.096 81.697 898.304 82.571 897.286 83.2218L898.363 84.9071ZM901.453 81.4843C902.181 80.0277 902.535 78.4069 902.535 76.6426H900.535C900.535 78.1335 900.238 79.4423 899.664 80.5899L901.453 81.4843ZM902.535 76.6426C902.535 74.8788 902.181 73.27 901.448 71.8406L899.669 72.7532C900.238 73.8628 900.535 75.1512 900.535 76.6426H902.535ZM901.453 71.8497C900.725 70.3939 899.694 69.2286 898.363 68.378L897.286 70.0634C898.298 70.7102 899.09 71.5957 899.664 72.7441L901.453 71.8497ZM898.373 68.385C897.059 67.5211 895.563 67.0977 893.918 67.0977V69.0977C895.203 69.0977 896.311 69.423 897.275 70.0564L898.373 68.385ZM941.453 60.2852V68.3418H943.453V60.2852H941.453ZM942.453 67.3418H932.834V69.3418H942.453V67.3418ZM931.834 68.3418V92.8535H933.834V68.3418H931.834ZM932.834 91.8535H923.703V93.8535H932.834V91.8535ZM924.703 92.8535V68.3418H922.703V92.8535H924.703ZM923.703 67.3418H914.084V69.3418H923.703V67.3418ZM915.084 68.3418V60.2852H913.084V68.3418H915.084ZM914.084 61.2852H942.453V59.2852H914.084V61.2852ZM966.746 84.9434V93H968.746V84.9434H966.746ZM967.746 92H947.58V94H967.746V92ZM948.58 93V84.9434H946.58V93H948.58ZM947.58 85.9434H953.098V83.9434H947.58V85.9434ZM954.098 84.9434V68.3418H952.098V84.9434H954.098ZM953.098 67.3418H947.58V69.3418H953.098V67.3418ZM948.58 68.3418V60.2852H946.58V68.3418H948.58ZM947.58 61.2852H967.746V59.2852H947.58V61.2852ZM966.746 60.2852V68.3418H968.746V60.2852H966.746ZM967.746 67.3418H962.229V69.3418H967.746V67.3418ZM961.229 68.3418V84.9434H963.229V68.3418H961.229ZM962.229 85.9434H967.746V83.9434H962.229V85.9434ZM989.377 60.5039C992.495 60.5039 995.287 61.1266 997.772 62.3537L998.658 60.5604C995.869 59.1833 992.769 58.5039 989.377 58.5039V60.5039ZM997.772 62.3537C1000.24 63.5747 1002.2 65.3376 1003.67 67.6551L1005.36 66.5871C1003.7 63.9567 1001.46 61.9436 998.658 60.5604L997.772 62.3537ZM1003.67 67.6551C1005.11 69.9396 1005.86 72.7404 1005.86 76.1055H1007.86C1007.86 72.4392 1007.04 69.2505 1005.36 66.5871L1003.67 67.6551ZM1005.86 76.1055C1005.86 78.3992 1005.47 80.5574 1004.7 82.5872L1006.57 83.2956C1007.43 81.0286 1007.86 78.6294 1007.86 76.1055H1005.86ZM1004.7 82.595C1003.96 84.5957 1002.9 86.3571 1001.52 87.8877L1003.01 89.2256C1004.56 87.5009 1005.75 85.5189 1006.57 83.2878L1004.7 82.595ZM1001.52 87.8877C1000.16 89.4083 998.514 90.5955 996.588 91.4514L997.4 93.279C999.576 92.312 1001.45 90.9602 1003.01 89.2256L1001.52 87.8877ZM996.588 91.4514C994.681 92.299 992.527 92.7324 990.109 92.7324V94.7324C992.77 94.7324 995.206 94.2543 997.4 93.279L996.588 91.4514ZM990.109 92.7324C988.641 92.7324 987.071 92.6686 985.401 92.5401L985.248 94.5342C986.962 94.6661 988.583 94.7324 990.109 94.7324V92.7324ZM985.383 92.5388C983.75 92.4428 982.15 92.2827 980.583 92.0589L980.3 94.0388C981.923 94.2707 983.579 94.4362 985.265 94.5354L985.383 92.5388ZM980.563 92.0562C978.987 91.8633 977.546 91.6389 976.238 91.3837L975.855 93.3467C977.217 93.6124 978.705 93.8437 980.32 94.0414L980.563 92.0562ZM977.047 92.3652V60.8711H975.047V92.3652H977.047ZM976.216 61.8566C978.279 61.5022 980.457 61.1955 982.751 60.9371L982.527 58.9496C980.198 59.212 977.982 59.5239 975.877 59.8855L976.216 61.8566ZM982.763 60.9356C985.069 60.6473 987.274 60.5039 989.377 60.5039V58.5039C987.183 58.5039 984.896 58.6535 982.515 58.9511L982.763 60.9356ZM989.67 67.0488C988.863 67.0488 988.029 67.119 987.168 67.2567L987.484 69.2316C988.251 69.1089 988.979 69.0488 989.67 69.0488V67.0488ZM987.202 67.2519C986.388 67.3537 985.631 67.4906 984.935 67.6646L985.42 69.6049C986.026 69.4534 986.702 69.3299 987.45 69.2364L987.202 67.2519ZM984.178 68.6348V84.6016H986.178V68.6348H984.178ZM984.887 85.5582C985.69 85.8028 986.511 85.9774 987.349 86.0821L987.597 84.0976C986.872 84.0069 986.163 83.856 985.469 83.6449L984.887 85.5582ZM987.39 86.0864C988.195 86.1535 988.955 86.1875 989.67 86.1875V84.1875C989.018 84.1875 988.313 84.1564 987.556 84.0933L987.39 86.0864ZM989.67 86.1875C991.482 86.1875 993.083 85.7774 994.418 84.9002L993.32 83.2287C992.376 83.8489 991.178 84.1875 989.67 84.1875V86.1875ZM994.424 84.8965C995.75 84.0125 996.764 82.8299 997.458 81.3685L995.651 80.5104C995.109 81.6531 994.332 82.5539 993.314 83.2324L994.424 84.8965ZM997.458 81.3685C998.147 79.9186 998.482 78.3213 998.482 76.5938H996.482C996.482 78.0564 996.2 79.3561 995.651 80.5104L997.458 81.3685ZM998.482 76.5938C998.482 73.8688 997.744 71.566 996.184 69.7829L994.679 71.0999C995.853 72.4418 996.482 74.2406 996.482 76.5938H998.482ZM996.199 69.7997C994.635 67.9308 992.406 67.0488 989.67 67.0488V69.0488C991.947 69.0488 993.559 69.7619 994.665 71.0831L996.199 69.7997ZM1031.88 84.9434V93H1033.88V84.9434H1031.88ZM1032.88 92H1012.72V94H1032.88V92ZM1013.72 93V84.9434H1011.72V93H1013.72ZM1012.72 85.9434H1018.23V83.9434H1012.72V85.9434ZM1019.23 84.9434V68.3418H1017.23V84.9434H1019.23ZM1018.23 67.3418H1012.72V69.3418H1018.23V67.3418ZM1013.72 68.3418V60.2852H1011.72V68.3418H1013.72ZM1012.72 61.2852H1032.88V59.2852H1012.72V61.2852ZM1031.88 60.2852V68.3418H1033.88V60.2852H1031.88ZM1032.88 67.3418H1027.37V69.3418H1032.88V67.3418ZM1026.37 68.3418V84.9434H1028.37V68.3418H1026.37ZM1027.37 85.9434H1032.88V83.9434H1027.37V85.9434ZM1062.3 73.0293V79.8652H1064.3V73.0293H1062.3ZM1063.3 78.8652H1050.31V80.8652H1063.3V78.8652ZM1049.31 79.8652V85.1875H1051.31V79.8652H1049.31ZM1050.31 86.1875H1065.01V84.1875H1050.31V86.1875ZM1064.01 85.1875V93H1066.01V85.1875H1064.01ZM1065.01 92H1041.18V94H1065.01V92ZM1042.18 93V60.2852H1040.18V93H1042.18ZM1041.18 61.2852H1065.01V59.2852H1041.18V61.2852ZM1064.01 60.2852V67.8535H1066.01V60.2852H1064.01ZM1065.01 66.8535H1050.31V68.8535H1065.01V66.8535ZM1049.31 67.8535V73.0293H1051.31V67.8535H1049.31ZM1050.31 74.0293H1063.3V72.0293H1050.31V74.0293ZM1102.2 60.2852V93.4883H1104.2V60.2852H1102.2ZM1103.2 92.4883H1099.97V94.4883H1103.2V92.4883ZM1100.66 92.7612L1083.13 76.2085L1081.76 77.6626L1099.29 94.2154L1100.66 92.7612ZM1081.44 76.9355V93H1083.44V76.9355H1081.44ZM1082.44 92H1073.31V94H1082.44V92ZM1074.31 93V59.7969H1072.31V93H1074.31ZM1073.31 60.7969H1076.54V58.7969H1073.31V60.7969ZM1075.84 60.5179L1093.37 77.3636L1094.76 75.9216L1077.23 59.0758L1075.84 60.5179ZM1095.06 76.6426V60.2852H1093.06V76.6426H1095.06ZM1094.06 61.2852H1103.2V59.2852H1094.06V61.2852Z" fill="black" mask="url(#path-1-outside-1_378_642)"/>
</g>
<defs>
<filter id="filter0_d_378_642" x="0" y="0" width="1382" height="169" filterUnits="userSpaceOnUse" color-interpolation-filters="sRGB">
<feFlood flood-opacity="0" result="BackgroundImageFix"/>
<feColorMatrix in="SourceAlpha" type="matrix" values="0 0 0 0 0 0 0 0 0 0 0 0 0 0 0 0 0 0 127 0" result="hardAlpha"/>
<feOffset dy="4"/>
<feGaussianBlur stdDeviation="2"/>
<feComposite in2="hardAlpha" operator="out"/>
<feColorMatrix type="matrix" values="0 0 0 0 0 0 0 0 0 0 0 0 0 0 0 0 0 0 0.25 0"/>
<feBlend mode="normal" in2="BackgroundImageFix" result="effect1_dropShadow_378_642"/>
<feBlend mode="normal" in="SourceGraphic" in2="effect1_dropShadow_378_642" result="shape"/>
</filter>
<linearGradient id="paint0_linear_378_642" x1="1377" y1="80.5" x2="-4.05134" y2="80.4999" gradientUnits="userSpaceOnUse">
<stop stop-color="#FF0000"/>
<stop offset="0.0001" stop-color="#BB7681"/>
<stop offset="0.0002" stop-color="#BB7681"/>
<stop offset="0.0003" stop-color="#BB7681"/>
<stop offset="0.0004" stop-color="#BA7382"/>
<stop offset="0.0005" stop-color="#FF0028"/>
<stop offset="1" stop-color="#2400FF"/>
</linearGradient>
</defs>
</svg>
